<?xml version="1.0" encoding="UTF-8" standalone="no"?>
<!-- Created with Inkscape (http://www.inkscape.org/) -->

<svg
   xmlns:dc="http://purl.org/dc/elements/1.1/"
   xmlns:cc="http://creativecommons.org/ns#"
   xmlns:rdf="http://www.w3.org/1999/02/22-rdf-syntax-ns#"
   xmlns:svg="http://www.w3.org/2000/svg"
   xmlns="http://www.w3.org/2000/svg"
   xmlns:sodipodi="http://sodipodi.sourceforge.net/DTD/sodipodi-0.dtd"
   xmlns:inkscape="http://www.inkscape.org/namespaces/inkscape"
   width="110.32716mm"
   height="93.735649mm"
   viewBox="0 0 110.32716 93.735648"
   version="1.1"
   id="svg6893"
   inkscape:version="0.92.1 r15371"
   sodipodi:docname="exp.svg">
  <defs
     id="defs6887">
    <path
       style="fill:none;stroke:#000000;stroke-width:0;stroke-linecap:butt;stroke-linejoin:miter;stroke-miterlimit:4;stroke-dasharray:none;stroke-opacity:1"
       d="M -11.554061,463.25741 C 38.258414,490.67485 144.23645,489.99659 78.315321,434.6688"
       id="path6851"
       inkscape:connector-curvature="0"
       sodipodi:nodetypes="cc" />
  </defs>
  <sodipodi:namedview
     id="base"
     pagecolor="#ffffff"
     bordercolor="#666666"
     borderopacity="1.0"
     inkscape:pageopacity="0.0"
     inkscape:pageshadow="2"
     inkscape:zoom="0.98994949"
     inkscape:cx="335.14151"
     inkscape:cy="93.211932"
     inkscape:document-units="mm"
     inkscape:current-layer="g6870"
     showgrid="false"
     fit-margin-top="0"
     fit-margin-left="0"
     fit-margin-right="0"
     fit-margin-bottom="0"
     inkscape:window-width="1366"
     inkscape:window-height="706"
     inkscape:window-x="-8"
     inkscape:window-y="-8"
     inkscape:window-maximized="1" />
  <metadata
     id="metadata6890">
    <rdf:RDF>
      <cc:Work
         rdf:about="">
        <dc:format>image/svg+xml</dc:format>
        <dc:type
           rdf:resource="http://purl.org/dc/dcmitype/StillImage" />
        <dc:title></dc:title>
      </cc:Work>
    </rdf:RDF>
  </metadata>
  <g
     inkscape:label="Layer 1"
     inkscape:groupmode="layer"
     id="layer1"
     transform="translate(30.301961,54.563453)">
    <g
       transform="matrix(0.35277777,0,0,-0.35277777,30.994048,213.08928)"
       id="g6870">
      <g
         id="g4550"
         transform="matrix(0.72511611,0,0,0.72511611,-38.761755,135.51592)">
        <path
           style="opacity:0.43800001;fill:#0000ff;stroke:#000080;stroke-width:0.75px;stroke-linecap:butt;stroke-linejoin:miter;stroke-opacity:1"
           d="m 16.299634,534.71759 c 32.653286,-18.42081 62.804195,-17.86403 121.010336,-24.57115 9.45648,-1.08967 10.32383,-13.39043 0.62852,-14.74043 C 113.49182,492.002 46.235866,492.02783 6.5699725,511.32255 -74.103044,550.5644 -175.68368,669.60354 -183.8314,701.53255 c 12.56144,29.83937 30.83619,108.06977 43.33269,106.95505 22.39123,-1.99736 -2.10549,-65.76687 -7.90485,-96.80834 53.267604,-11.93963 295.69877,-6.20932 299.41458,-22.45797 1.50303,-12.75149 -232.205582,-1.80992 -289.37497,-7.50204 -8.74422,-3.74753 84.396847,-116.04303 154.663584,-147.00166 z"
           id="path6789"
           inkscape:connector-curvature="0"
           sodipodi:nodetypes="cssacscccc" />
        <g
           id="text6857"
           style="font-style:normal;font-variant:normal;font-weight:normal;font-stretch:normal;font-size:5px;line-height:1.25;font-family:sans-serif;-inkscape-font-specification:'sans-serif, Normal';font-variant-ligatures:normal;font-variant-caps:normal;font-variant-numeric:normal;font-feature-settings:normal;text-align:start;letter-spacing:0px;word-spacing:0px;writing-mode:lr-tb;text-anchor:start;fill:#000000;fill-opacity:1;stroke:none;stroke-width:0.75"
           transform="matrix(0.97498181,0.22228466,0.22228466,-0.97498181,-43.730867,968.06668)"
           aria-label="за предмет залога">
          <path
             inkscape:connector-curvature="0"
             id="path4502"
             style="font-style:normal;font-variant:normal;font-weight:normal;font-stretch:normal;font-size:5px;font-family:sans-serif;-inkscape-font-specification:'sans-serif, Normal';font-variant-ligatures:normal;font-variant-caps:normal;font-variant-numeric:normal;font-feature-settings:normal;text-align:start;writing-mode:lr-tb;text-anchor:start;stroke-width:0.75"
             d="m -9.1262336,463.69509 q -0.107911,0.20254 -0.2773356,0.29208 -0.1672699,0.0907 -0.3597067,0.0988 -0.1912889,0.006 -0.3886351,-0.0494 -0.197347,-0.0554 -0.374029,-0.14948 -0.249942,-0.13317 -0.450926,-0.30111 -0.200984,-0.16794 -0.367952,-0.38415 l 0.236485,-0.44386 0.02801,0.0149 q 0.08382,0.2217 0.287117,0.42684 0.203298,0.20513 0.431692,0.32682 0.107734,0.0574 0.232263,0.0988 0.125677,0.0393 0.2338167,0.0388 0.1180477,-0.003 0.209798,-0.0459 0.092898,-0.0446 0.1594817,-0.16953 0.068879,-0.12928 0.05634,-0.23555 -0.010384,-0.10512 -0.080217,-0.19212 -0.067678,-0.0858 -0.1880562,-0.16105 -0.1203787,-0.0752 -0.2238027,-0.1303 l -0.3512105,-0.18713 0.185974,-0.34905 0.2434774,0.12972 q 0.086187,0.0459 0.2275293,0.11293 0.1434972,0.0682 0.2446077,0.0861 0.1315585,0.0231 0.2317861,-0.009 0.1023823,-0.0312 0.1804456,-0.17772 0.053955,-0.10127 0.036683,-0.19346 -0.016124,-0.0944 -0.074177,-0.17231 -0.060207,-0.0791 -0.1524335,-0.14484 -0.090072,-0.0646 -0.1654854,-0.10476 -0.2197759,-0.1171 -0.4652316,-0.17042 -0.2421526,-0.0543 -0.4462106,-0.0192 l -0.02801,-0.0149 0.237634,-0.44602 q 0.2098326,0.0371 0.4340417,0.10954 0.2242091,0.0724 0.4289024,0.18149 0.1680639,0.0895 0.3179014,0.2081 0.1519921,0.11971 0.2573231,0.26988 0.1031764,0.14903 0.125941,0.32437 0.023913,0.17319 -0.074814,0.35849 -0.1010231,0.18961 -0.2964449,0.27083 -0.1921193,0.0802 -0.4236402,0.0371 l -0.00804,0.0151 q 0.1932309,0.17211 0.2454543,0.39081 0.053371,0.21654 -0.076351,0.46002 z" />
          <path
             inkscape:connector-curvature="0"
             id="path4504"
             style="font-style:normal;font-variant:normal;font-weight:normal;font-stretch:normal;font-size:5px;font-family:sans-serif;-inkscape-font-specification:'sans-serif, Normal';font-variant-ligatures:normal;font-variant-caps:normal;font-variant-numeric:normal;font-feature-settings:normal;text-align:start;writing-mode:lr-tb;text-anchor:start;stroke-width:0.75"
             d="m -6.9393498,465.64767 -0.4086997,-0.20346 0.1294746,-0.26008 q -0.073135,0.01 -0.2008432,0.0309 -0.1244341,0.0199 -0.2314409,0.0157 -0.1277459,-8.7e-4 -0.2773854,-0.0345 -0.1507275,-0.0314 -0.3299434,-0.12061 -0.3300196,-0.1643 -0.4507012,-0.49709 -0.1206817,-0.3328 0.047962,-0.67156 0.1381788,-0.27757 0.3410647,-0.38929 0.2061596,-0.11282 0.4758621,-0.10128 0.2718881,0.0126 0.6018316,0.13325 0.3299434,0.12062 0.6970795,0.28157 l 0.031553,-0.0634 q 0.069633,-0.13988 0.065062,-0.2567 -0.00239,-0.11573 -0.068066,-0.21388 -0.062398,-0.0938 -0.1760851,-0.1722 -0.1136872,-0.0784 -0.2470064,-0.14478 -0.1617314,-0.0805 -0.3823778,-0.13582 -0.2195584,-0.0575 -0.4718145,-0.0822 l -0.021856,-0.0109 0.2078121,-0.41745 q 0.1365262,0.0271 0.3834088,0.10088 0.2468826,0.0738 0.4676242,0.1837 0.2578961,0.12839 0.4262794,0.26676 0.1716569,0.13727 0.2603957,0.30962 0.087641,0.16908 0.080339,0.36453 -0.0073,0.19546 -0.1248085,0.4315 z m -0.1094937,-0.80449 0.3383747,-0.67971 q -0.1933982,-0.0826 -0.459989,-0.18808 -0.2644052,-0.10436 -0.4336957,-0.13682 -0.2020549,-0.0379 -0.3646459,0.0148 -0.1615031,0.0505 -0.2539849,0.23628 -0.1044501,0.20981 -0.031001,0.38001 0.074537,0.16801 0.3346191,0.29749 0.2163704,0.10771 0.4369312,0.11388 0.2216488,0.004 0.4333912,-0.0379 z" />
          <path
             inkscape:connector-curvature="0"
             id="path4506"
             style="font-style:normal;font-variant:normal;font-weight:normal;font-stretch:normal;font-size:5px;font-family:sans-serif;-inkscape-font-specification:'sans-serif, Normal';font-variant-ligatures:normal;font-variant-caps:normal;font-variant-numeric:normal;font-feature-settings:normal;text-align:start;writing-mode:lr-tb;text-anchor:start;stroke-width:0.75"
             d="m -2.4605637,467.70355 -0.4192706,-0.18676 0.9486938,-2.12981 -1.2466612,-0.55531 -0.9486938,2.12981 -0.4192707,-0.18676 1.1096241,-2.49109 2.0852025,0.92882 z" />
          <path
             inkscape:connector-curvature="0"
             id="path4508"
             style="font-style:normal;font-variant:normal;font-weight:normal;font-stretch:normal;font-size:5px;font-family:sans-serif;-inkscape-font-specification:'sans-serif, Normal';font-variant-ligatures:normal;font-variant-caps:normal;font-variant-numeric:normal;font-feature-settings:normal;text-align:start;writing-mode:lr-tb;text-anchor:start;stroke-width:0.75"
             d="m 1.1199456,467.69028 q -0.12742028,0.30661 -0.32121606,0.52483 -0.19285887,0.21596 -0.42600586,0.32529 -0.21812696,0.10499 -0.45944317,0.1131 -0.23812482,0.007 -0.46357231,-0.0869 -0.19613931,-0.0815 -0.33840567,-0.19087 -0.14001183,-0.10842 -0.26711203,-0.26699 l -0.4384756,1.05509 -0.4238413,-0.17614 1.4325412,-3.44709 0.42384127,0.17614 -0.10961891,0.26377 q 0.22811119,-0.0718 0.47712773,-0.0793 0.25220793,-0.009 0.49118227,0.0904 0.45540394,0.18926 0.56455734,0.63913 0.1123447,0.44855 -0.1415589,1.05951 z M 0.6778929,467.5198 q 0.18925658,-0.45541 0.12738919,-0.7455 -0.0618674,-0.2901 -0.38425729,-0.42408 -0.18261247,-0.0759 -0.40027139,-0.0738 -0.21765893,0.002 -0.44014863,0.0603 l -0.59306648,1.42708 q 0.14662914,0.15612 0.26295433,0.23883 0.11857967,0.0837 0.28315633,0.15204 0.35395256,0.1471 0.65165921,-0.009 0.29770666,-0.15652 0.49258473,-0.62545 z" />
          <path
             inkscape:connector-curvature="0"
             id="path4510"
             style="font-style:normal;font-variant:normal;font-weight:normal;font-stretch:normal;font-size:5px;font-family:sans-serif;-inkscape-font-specification:'sans-serif, Normal';font-variant-ligatures:normal;font-variant-caps:normal;font-variant-numeric:normal;font-feature-settings:normal;text-align:start;writing-mode:lr-tb;text-anchor:start;stroke-width:0.75"
             d="m 3.8539613,468.84523 -1.8725068,-0.72864 q -0.09119,0.23435 -0.08883,0.43699 0.00325,0.20036 0.082726,0.35965 0.075815,0.15525 0.2161074,0.27272 0.1425676,0.11835 0.3382366,0.19448 0.2593752,0.10093 0.5608661,0.10036 0.3046514,-0.002 0.4550924,-0.0587 l 0.022752,0.009 -0.1814955,0.46642 q -0.2515598,0.007 -0.500711,-0.0193 -0.2491511,-0.0262 -0.4971502,-0.12272 -0.6325114,-0.24612 -0.8546442,-0.72552 -0.2212475,-0.48167 0.023993,-1.11191 0.2425843,-0.62341 0.7241326,-0.8578 0.4838236,-0.23351 1.0389775,-0.0175 0.5141999,0.20009 0.6749114,0.60843 0.1629867,0.40923 -0.052152,0.96211 z m -0.2888759,-0.48965 q 0.1287557,-0.33762 0.032102,-0.58743 -0.094378,-0.24892 -0.4356614,-0.38172 -0.3435583,-0.13369 -0.6271239,-0.0109 -0.2812903,0.1237 -0.4254584,0.41341 z" />
          <path
             inkscape:connector-curvature="0"
             id="path4512"
             style="font-style:normal;font-variant:normal;font-weight:normal;font-stretch:normal;font-size:5px;font-family:sans-serif;-inkscape-font-specification:'sans-serif, Normal';font-variant-ligatures:normal;font-variant-caps:normal;font-variant-numeric:normal;font-feature-settings:normal;text-align:start;writing-mode:lr-tb;text-anchor:start;stroke-width:0.75"
             d="m 6.1305385,471.7781 -0.4013879,-0.14638 0.2266791,-0.62158 -1.926662,-0.70262 -0.2266791,0.62158 -0.4013879,-0.14638 0.3580024,-0.98168 0.2775311,0.10121 q 0.4297922,-0.34481 0.7713164,-0.87513 0.3446544,-0.53178 0.5612961,-1.12583 l 1.610139,0.58719 -0.8004868,2.19502 0.3096421,0.11292 z m -0.3828449,-1.25186 0.668327,-1.83262 -0.7729585,-0.28188 q -0.2397674,0.56483 -0.5597068,0.98608 -0.3199393,0.42125 -0.6223967,0.65917 z" />
          <path
             inkscape:connector-curvature="0"
             id="path4514"
             style="font-style:normal;font-variant:normal;font-weight:normal;font-stretch:normal;font-size:5px;font-family:sans-serif;-inkscape-font-specification:'sans-serif, Normal';font-variant-ligatures:normal;font-variant-caps:normal;font-variant-numeric:normal;font-feature-settings:normal;text-align:start;writing-mode:lr-tb;text-anchor:start;stroke-width:0.75"
             d="m 9.3899312,472.20126 -0.429927,-0.14618 0.6932148,-2.03869 -1.0937189,1.10827 -0.323601,-0.11004 -0.1868165,-1.54368 -0.6932148,2.03868 -0.4068127,-0.13833 0.8779149,-2.58187 0.5246959,0.17841 0.2114528,1.68358 1.1707857,-1.21358 0.5339416,0.18156 z" />
          <path
             inkscape:connector-curvature="0"
             id="path4516"
             style="font-style:normal;font-variant:normal;font-weight:normal;font-stretch:normal;font-size:5px;font-family:sans-serif;-inkscape-font-specification:'sans-serif, Normal';font-variant-ligatures:normal;font-variant-caps:normal;font-variant-numeric:normal;font-feature-settings:normal;text-align:start;writing-mode:lr-tb;text-anchor:start;stroke-width:0.75"
             d="m 12.827426,471.91822 -1.915161,-0.60775 q -0.07606,0.23969 -0.06078,0.44176 0.01602,0.19975 0.105493,0.35365 0.08556,0.1501 0.233058,0.25838 0.149824,0.10902 0.34995,0.17252 0.265284,0.0842 0.566125,0.0644 0.303906,-0.0214 0.450423,-0.0876 l 0.02327,0.007 -0.151383,0.47704 q -0.250608,0.0229 -0.500924,0.0126 -0.250316,-0.0103 -0.503964,-0.0908 -0.646919,-0.20529 -0.89917,-0.66955 -0.251513,-0.46658 -0.04696,-1.11118 0.202337,-0.63761 0.667958,-0.90223 0.467948,-0.26389 1.035747,-0.0837 0.525913,0.16689 0.712337,0.56416 0.188751,0.398 0.0093,0.96347 z m -0.319513,-0.47023 q 0.106964,-0.34515 -0.0054,-0.58828 -0.11006,-0.2424 -0.459117,-0.35317 -0.351384,-0.1115 -0.626541,0.0291 -0.27283,0.14139 -0.39823,0.4397 z" />
          <path
             inkscape:connector-curvature="0"
             id="path4518"
             style="font-style:normal;font-variant:normal;font-weight:normal;font-stretch:normal;font-size:5px;font-family:sans-serif;-inkscape-font-specification:'sans-serif, Normal';font-variant-ligatures:normal;font-variant-caps:normal;font-variant-numeric:normal;font-feature-settings:normal;text-align:start;writing-mode:lr-tb;text-anchor:start;stroke-width:0.75"
             d="m 15.682239,471.7214 -0.944957,-0.28267 -0.666082,2.22673 -0.439733,-0.13154 0.666083,-2.22673 -0.944957,-0.28266 0.115445,-0.38594 2.329646,0.69687 z" />
          <path
             inkscape:connector-curvature="0"
             id="path4520"
             style="font-style:normal;font-variant:normal;font-weight:normal;font-stretch:normal;font-size:5px;font-family:sans-serif;-inkscape-font-specification:'sans-serif, Normal';font-variant-ligatures:normal;font-variant-caps:normal;font-variant-numeric:normal;font-feature-settings:normal;text-align:start;writing-mode:lr-tb;text-anchor:start;stroke-width:0.75"
             d="m 19.196921,474.31681 q -0.0602,0.22145 -0.205485,0.34641 -0.142931,0.1256 -0.328749,0.17629 -0.185178,0.0483 -0.389891,0.0382 -0.204712,-0.0101 -0.397898,-0.0626 -0.273286,-0.0743 -0.506569,-0.19336 -0.233282,-0.11907 -0.444127,-0.29276 l 0.131923,-0.48532 0.03063,0.008 q 0.130996,0.19753 0.374801,0.35236 0.243804,0.15482 0.493532,0.2227 0.117796,0.032 0.248423,0.0448 0.131267,0.0104 0.236597,-0.0141 0.114318,-0.0296 0.194349,-0.0914 0.08067,-0.0641 0.117815,-0.20073 0.03843,-0.14136 0.0026,-0.24218 -0.03349,-0.10018 -0.120908,-0.16949 -0.08507,-0.0687 -0.219147,-0.11523 -0.134082,-0.0466 -0.247166,-0.0773 l -0.384015,-0.10439 0.103746,-0.38166 0.266219,0.0724 q 0.09424,0.0256 0.246936,0.0595 0.155056,0.0346 0.257618,0.0296 0.133395,-0.007 0.223925,-0.0606 0.09289,-0.0532 0.136433,-0.21338 0.0301,-0.11073 -0.0072,-0.19678 -0.03669,-0.0884 -0.110615,-0.15151 -0.07628,-0.0637 -0.180812,-0.10734 -0.102174,-0.043 -0.184631,-0.0654 -0.240304,-0.0653 -0.491471,-0.0628 -0.248171,8.5e-4 -0.439318,0.0804 l -0.03063,-0.008 0.132564,-0.48768 q 0.212832,-0.0105 0.447531,0.0103 0.234699,0.0208 0.458511,0.0816 0.183761,0.0499 0.356201,0.13224 0.174796,0.0829 0.310869,0.20595 0.133717,0.12236 0.194881,0.28826 0.06181,0.16354 0.0067,0.36615 -0.05636,0.20732 -0.228838,0.32994 -0.169487,0.12091 -0.404803,0.13032 l -0.0045,0.0165 q 0.22665,0.12486 0.326173,0.32648 0.100163,0.19927 0.0278,0.46549 z" />
          <path
             inkscape:connector-curvature="0"
             id="path4522"
             style="font-style:normal;font-variant:normal;font-weight:normal;font-stretch:normal;font-size:5px;font-family:sans-serif;-inkscape-font-specification:'sans-serif, Normal';font-variant-ligatures:normal;font-variant-caps:normal;font-variant-numeric:normal;font-feature-settings:normal;text-align:start;writing-mode:lr-tb;text-anchor:start;stroke-width:0.75"
             d="m 21.755943,475.7632 -0.442414,-0.1127 0.07172,-0.28154 q -0.06939,0.0251 -0.189806,0.0726 -0.117447,0.0457 -0.222929,0.0641 -0.125057,0.0261 -0.278414,0.0248 -0.153959,10e-4 -0.347959,-0.0483 -0.357243,-0.091 -0.545388,-0.39087 -0.188145,-0.29987 -0.09473,-0.66657 0.07654,-0.30047 0.251307,-0.45246 0.177734,-0.15375 0.443805,-0.19934 0.268437,-0.045 0.616397,0.003 0.347959,0.0483 0.740779,0.12824 l 0.01748,-0.0686 q 0.03857,-0.15141 0.0095,-0.26464 -0.02674,-0.11262 -0.111637,-0.19472 -0.08077,-0.0785 -0.208438,-0.1312 -0.127666,-0.0527 -0.271982,-0.0894 -0.175073,-0.0446 -0.402419,-0.0521 -0.226743,-0.01 -0.478529,0.0192 l -0.02366,-0.006 0.115113,-0.45188 q 0.139162,-0.002 0.396059,0.0178 0.256896,0.0201 0.495847,0.081 0.27917,0.0711 0.472945,0.17087 0.196743,0.098 0.319831,0.24776 0.121325,0.14679 0.155402,0.33939 0.03408,0.1926 -0.03101,0.44811 z m -0.276675,-0.76331 0.187436,-0.73578 q -0.206477,-0.04 -0.489308,-0.0869 -0.280465,-0.0463 -0.452793,-0.0423 -0.205496,0.006 -0.35332,0.0914 -0.147221,0.0834 -0.198449,0.28452 -0.05786,0.22712 0.04983,0.378 0.10829,0.14852 0.389826,0.22024 0.234219,0.0597 0.451121,0.0192 0.217504,-0.0428 0.415658,-0.12841 z" />
          <path
             inkscape:connector-curvature="0"
             id="path4524"
             style="font-style:normal;font-variant:normal;font-weight:normal;font-stretch:normal;font-size:5px;font-family:sans-serif;-inkscape-font-specification:'sans-serif, Normal';font-variant-ligatures:normal;font-variant-caps:normal;font-variant-numeric:normal;font-feature-settings:normal;text-align:start;writing-mode:lr-tb;text-anchor:start;stroke-width:0.75"
             d="m 24.759555,476.48219 -0.446641,-0.10573 0.539337,-2.27834 -0.990686,-0.23452 q -0.05381,0.1955 -0.104238,0.37675 -0.05043,0.18124 -0.09243,0.32685 -0.110551,0.39281 -0.204802,0.62139 -0.09369,0.2262 -0.192577,0.36838 -0.09189,0.1338 -0.185092,0.20958 -0.09027,0.074 -0.188478,0.12849 -0.09765,0.0521 -0.205864,0.0642 -0.105842,0.0126 -0.222253,-0.015 -0.04039,-0.01 -0.118225,-0.0305 -0.07546,-0.0204 -0.09922,-0.026 l 0.09223,-0.38962 0.02376,0.006 q 0.01901,0.005 0.05408,0.0153 0.03507,0.0108 0.05883,0.0164 0.05702,0.0135 0.120348,0.0109 0.06571,-0.002 0.119156,-0.037 0.149282,-0.0901 0.289856,-0.35538 0.140573,-0.26528 0.290869,-0.7942 0.05562,-0.19257 0.125735,-0.45696 0.07305,-0.26621 0.137546,-0.50685 l 1.826949,0.43248 z" />
          <path
             inkscape:connector-curvature="0"
             id="path4526"
             style="font-style:normal;font-variant:normal;font-weight:normal;font-stretch:normal;font-size:5px;font-family:sans-serif;-inkscape-font-specification:'sans-serif, Normal';font-variant-ligatures:normal;font-variant-caps:normal;font-variant-numeric:normal;font-feature-settings:normal;text-align:start;writing-mode:lr-tb;text-anchor:start;stroke-width:0.75"
             d="m 28.204724,475.84961 q -0.142602,0.65107 -0.559016,0.95475 -0.416413,0.30368 -0.976858,0.18093 -0.565215,-0.1238 -0.816565,-0.57374 -0.248966,-0.44941 -0.106364,-1.10048 0.142602,-0.65107 0.55663,-0.95528 0.416936,-0.30606 0.982151,-0.18226 0.560445,0.12275 0.811273,0.57507 0.251351,0.44994 0.108749,1.10101 z m -0.462665,-0.10134 q 0.11335,-0.51751 -0.03452,-0.81232 -0.147345,-0.2972 -0.507461,-0.37607 -0.364885,-0.0799 -0.622969,0.12847 -0.255176,0.20654 -0.368526,0.72405 -0.109694,0.50083 0.03608,0.80518 0.1463,0.30196 0.508801,0.38136 0.357731,0.0784 0.616336,-0.13243 0.261513,-0.21264 0.372252,-0.71824 z" />
          <path
             inkscape:connector-curvature="0"
             id="path4528"
             style="font-style:normal;font-variant:normal;font-weight:normal;font-stretch:normal;font-size:5px;font-family:sans-serif;-inkscape-font-specification:'sans-serif, Normal';font-variant-ligatures:normal;font-variant-caps:normal;font-variant-numeric:normal;font-feature-settings:normal;text-align:start;writing-mode:lr-tb;text-anchor:start;stroke-width:0.75"
             d="m 30.917742,475.42185 -1.392297,-0.28366 -0.463995,2.27743 -0.449746,-0.0916 0.544416,-2.67215 1.842041,0.37529 z" />
          <path
             inkscape:connector-curvature="0"
             id="path4530"
             style="font-style:normal;font-variant:normal;font-weight:normal;font-stretch:normal;font-size:5px;font-family:sans-serif;-inkscape-font-specification:'sans-serif, Normal';font-variant-ligatures:normal;font-variant-caps:normal;font-variant-numeric:normal;font-feature-settings:normal;text-align:start;writing-mode:lr-tb;text-anchor:start;stroke-width:0.75"
             d="m 33.001253,478.18265 -0.448628,-0.0847 0.05386,-0.28549 q -0.06767,0.0295 -0.184863,0.0844 -0.114341,0.053 -0.218451,0.078 -0.123168,0.0339 -0.276301,0.0423 -0.153586,0.0108 -0.350311,-0.0263 -0.362261,-0.0683 -0.568901,-0.35578 -0.20664,-0.28744 -0.136482,-0.65929 0.05748,-0.30469 0.22234,-0.46737 0.167708,-0.16464 0.430383,-0.22688 0.265075,-0.0618 0.615386,-0.0354 0.35031,0.0263 0.747381,0.0814 l 0.01313,-0.0696 q 0.02897,-0.15354 -0.0072,-0.26471 -0.03377,-0.11072 -0.123667,-0.18731 -0.08555,-0.0733 -0.21628,-0.11783 -0.130727,-0.0445 -0.277071,-0.0722 -0.177532,-0.0335 -0.404901,-0.0267 -0.226917,0.004 -0.476375,0.0493 l -0.02399,-0.005 0.08645,-0.45823 q 0.138739,-0.0111 0.396391,-0.007 0.257652,0.004 0.499959,0.0496 0.283091,0.0534 0.482759,0.14077 0.202519,0.0854 0.334786,0.22714 0.130321,0.13887 0.176449,0.32894 0.04613,0.19007 -0.0028,0.44917 z m -0.324154,-0.74439 0.140769,-0.74612 q -0.208584,-0.0269 -0.493802,-0.0559 -0.28282,-0.0285 -0.454558,-0.0137 -0.204736,0.0185 -0.346869,0.11344 -0.14168,0.0925 -0.180154,0.29645 -0.04345,0.23031 0.07352,0.37412 0.11742,0.14141 0.402911,0.19527 0.237508,0.0448 0.451433,-0.009 0.214377,-0.0565 0.406755,-0.15431 z" />
        </g>
      </g>
    </g>
  </g>
</svg>
